{
  "accessors": [
    {
      "bufferView": 0,
      "componentType": 5121,
      "count": 6,
      "max": [
        3.0
      ],
      "min": [
        0.0
      ],
      "type": "SCALAR"
    },
    {
      "bufferView": 1,
      "componentType": 5126,
      "count": 4,
      "max": [
        30.0,
        0.0,
        3.0
      ],
      "min": [
        0.0,
        0.0,
        0.0
      ],
      "type": "VEC3"
    },
    {
      "bufferView": 1,
      "byteOffset": 48,
      "componentType": 5126,
      "count": 4,
      "max": [
        0.0,
        -1.0,
        0.0
      ],
      "min": [
        0.0,
        -1.0,
        0.0
      ],
      "type": "VEC3"
    },
    {
      "bufferView": 0,
      "byteOffset": 8,
      "componentType": 5121,
      "count": 6,
      "max": [
        3.0
      ],
      "min": [
        0.0
      ],
      "type": "SCALAR"
    },
    {
      "bufferView": 1,
      "byteOffset": 96,
      "componentType": 5126,
      "count": 4,
      "max": [
        0.0,
        10.0,
        3.0
      ],
      "min": [
        0.0,
        0.0,
        0.0
      ],
      "type": "VEC3"
    },
    {
      "bufferView": 1,
      "byteOffset": 144,
      "componentType": 5126,
      "count": 4,
      "max": [
        -1.0,
        0.0,
        0.0
      ],
      "min": [
        -1.0,
        0.0,
        0.0
      ],
      "type": "VEC3"
    },
    {
      "bufferView": 0,
      "byteOffset": 16,
      "componentType": 5121,
      "count": 6,
      "max": [
        3.0
      ],
      "min": [
        0.0
      ],
      "type": "SCALAR"
    },
    {
      "bufferView": 1,
      "byteOffset": 192,
      "componentType": 5126,
      "count": 4,
      "max": [
        30.0,
        10.0,
        3.0
      ],
      "min": [
        30.0,
        0.0,
        0.0
      ],
      "type": "VEC3"
    },
    {
      "bufferView": 1,
      "byteOffset": 240,
      "componentType": 5126,
      "count": 4,
      "max": [
        1.0,
        0.0,
        0.0
      ],
      "min": [
        1.0,
        0.0,
        0.0
      ],
      "type": "VEC3"
    },
    {
      "bufferView": 0,
      "byteOffset": 24,
      "componentType": 5121,
      "count": 6,
      "max": [
        3.0
      ],
      "min": [
        0.0
      ],
      "type": "SCALAR"
    },
    {
      "bufferView": 1,
      "byteOffset": 288,
      "componentType": 5126,
      "count": 4,
      "max": [
        30.0,
        10.0,
        3.0
      ],
      "min": [
        0.0,
        10.0,
        0.0
      ],
      "type": "VEC3"
    },
    {
      "bufferView": 1,
      "byteOffset": 336,
      "componentType": 5126,
      "count": 4,
      "max": [
        0.0,
        1.0,
        0.0
      ],
      "min": [
        0.0,
        1.0,
        0.0
      ],
      "type": "VEC3"
    },
    {
      "bufferView": 0,
      "byteOffset": 32,
      "componentType": 5121,
      "count": 6,
      "max": [
        3.0
      ],
      "min": [
        0.0
      ],
      "type": "SCALAR"
    },
    {
      "bufferView": 1,
      "byteOffset": 384,
      "componentType": 5126,
      "count": 4,
      "max": [
        30.0,
        10.0,
        0.0
      ],
      "min": [
        0.0,
        0.0,
        0.0
      ],
      "type": "VEC3"
    },
    {
      "bufferView": 1,
      "byteOffset": 432,
      "componentType": 5126,
      "count": 4,
      "max": [
        0.0,
        0.0,
        -1.0
      ],
      "min": [
        0.0,
        0.0,
        -1.0
      ],
      "type": "VEC3"
    },
    {
      "bufferView": 0,
      "byteOffset": 40,
      "componentType": 5121,
      "count": 6,
      "max": [
        3.0
      ],
      "min": [
        0.0
      ],
      "type": "SCALAR"
    },
    {
      "bufferView": 1,
      "byteOffset": 480,
      "componentType": 5126,
      "count": 4,
      "max": [
        30.0,
        10.0,
        3.0
      ],
      "min": [
        0.0,
        0.0,
        3.0
      ],
      "type": "VEC3"
    },
    {
      "bufferView": 1,
      "byteOffset": 528,
      "componentType": 5126,
      "count": 4,
      "max": [
        0.0,
        0.0,
        1.0
      ],
      "min": [
        0.0,
        0.0,
        1.0
      ],
      "type": "VEC3"
    }
  ],
  "asset": {
    "generator": "OpenStudio",
    "version": "2.0"
  },
  "bufferViews": [
    {
      "buffer": 0,
      "byteLength": 48,
      "target": 34963
    },
    {
      "buffer": 0,
      "byteLength": 576,
      "byteOffset": 48,
      "byteStride": 12,
      "target": 34962
    }
  ],
  "buffers": [
    {
      "byteLength": 624,
      "uri": "data:application/octet-stream;base64,"
    }
  ],
  "materials": [
    {
      "doubleSided": true,
      "emissiveFactor": [
        0.01,
        0.01,
        0.0
      ],
      "name": "Wall",
      "pbrMetallicRoughness": {
        "baseColorFactor": [
          0.5882353186607361,
          0.5137255191802979,
          0.29411765933036804,
          1.0
        ],
        "metallicFactor": 0.0
      }
    },
    {
      "doubleSided": true,
      "emissiveFactor": [
        0.01,
        0.01,
        0.0
      ],
      "name": "Floor",
      "pbrMetallicRoughness": {
        "baseColorFactor": [
          0.5490196347236633,
          0.5490196347236633,
          0.5490196347236633,
          1.0
        ],
        "metallicFactor": 0.0
      }
    },
    {
      "doubleSided": true,
      "emissiveFactor": [
        0.01,
        0.01,
        0.0
      ],
      "name": "RoofCeiling",
      "pbrMetallicRoughness": {
        "baseColorFactor": [
          0.43921568989753723,
          0.21960784494876862,
          0.2235294133424759,
          1.0
        ],
        "metallicFactor": 0.0
      }
    }
  ],
  "meshes": [
    {
      "name": "1-SOUTH",
      "primitives": [
        {
          "attributes": {
            "NORMAL": 2,
            "POSITION": 1
          },
          "indices": 0,
          "material": 0,
          "mode": 4
        }
      ]
    },
    {
      "name": "2-WEST",
      "primitives": [
        {
          "attributes": {
            "NORMAL": 5,
            "POSITION": 4
          },
          "indices": 3,
          "material": 0,
          "mode": 4
        }
      ]
    },
    {
      "name": "3-EAST",
      "primitives": [
        {
          "attributes": {
            "NORMAL": 8,
            "POSITION": 7
          },
          "indices": 6,
          "material": 0,
          "mode": 4
        }
      ]
    },
    {
      "name": "4-NORTH",
      "primitives": [
        {
          "attributes": {
            "NORMAL": 11,
            "POSITION": 10
          },
          "indices": 9,
          "material": 0,
          "mode": 4
        }
      ]
    },
    {
      "name": "FLOOR",
      "primitives": [
        {
          "attributes": {
            "NORMAL": 14,
            "POSITION": 13
          },
          "indices": 12,
          "material": 1,
          "mode": 4
        }
      ]
    },
    {
      "name": "ROOF",
      "primitives": [
        {
          "attributes": {
            "NORMAL": 17,
            "POSITION": 16
          },
          "indices": 15,
          "material": 2,
          "mode": 4
        }
      ]
    }
  ],
  "nodes": [
    {
      "children": [
        1,
        2,
        3,
        4,
        5,
        6
      ],
      "matrix": [
        1.0,
        0.0,
        0.0,
        0.0,
        0.0,
        0.0,
        -1.0,
        0.0,
        0.0,
        1.0,
        0.0,
        0.0,
        0.0,
        0.0,
        0.0,
        1.0
      ],
      "name": "Z_UP"
    },
    {
      "extras": {
        "airLoopHVACHandles": null,
        "airLoopHVACMaterialNames": null,
        "airLoopHVACNames": null,
        "airWall": false,
        "boundaryMaterialName": "Boundary_Outdoors_SunWind",
        "buildingStoryHandle": "",
        "buildingStoryMaterialName": "",
        "buildingStoryName": "",
        "buildingUnitHandle": "",
        "buildingUnitMaterialName": "",
        "buildingUnitName": "",
        "coincidentWithOutsideObject": false,
        "constructionHandle": "",
        "constructionMaterialName": "Construction_R13 Construction",
        "constructionName": "R13 Construction",
        "constructionSetHandle": "3d1a945a-cdfd-4bc2-a24d-2580ab08b872",
        "constructionSetMaterialName": "",
        "constructionSetName": "",
        "handle": "2c3b602a-1ecd-4288-abd7-6b8a6105c1c0",
        "illuminanceSetpoint": 0.0,
        "name": "1-SOUTH",
        "outsideBoundaryCondition": "Outdoors",
        "outsideBoundaryConditionObjectHandle": "",
        "outsideBoundaryConditionObjectName": "",
        "shadingHandle": "",
        "shadingName": "",
        "spaceHandle": "ddf205ef-02cf-45a3-af90-9c17b3acfec8",
        "spaceName": "Space1",
        "spaceTypeHandle": "",
        "spaceTypeMaterialName": "",
        "spaceTypeName": "",
        "subSurfaceHandle": "",
        "subSurfaceName": "",
        "sunExposure": "SunExposed",
        "surfaceHandle": "2c3b602a-1ecd-4288-abd7-6b8a6105c1c0",
        "surfaceName": "1-SOUTH",
        "surfaceType": "Wall",
        "surfaceTypeMaterialName": "Wall",
        "thermalZoneHandle": "4e37533f-92ea-4fac-9a79-bcb83702798e",
        "thermalZoneMaterialName": "ThermalZone_Zone1",
        "thermalZoneName": "Zone1",
        "windExposure": "WindExposed"
      },
      "mesh": 0,
      "name": "1-SOUTH"
    },
    {
      "extras": {
        "airLoopHVACHandles": null,
        "airLoopHVACMaterialNames": null,
        "airLoopHVACNames": null,
        "airWall": false,
        "boundaryMaterialName": "Boundary_Outdoors_SunWind",
        "buildingStoryHandle": "",
        "buildingStoryMaterialName": "",
        "buildingStoryName": "",
        "buildingUnitHandle": "",
        "buildingUnitMaterialName": "",
        "buildingUnitName": "",
        "coincidentWithOutsideObject": false,
        "constructionHandle": "",
        "constructionMaterialName": "Construction_R13 Construction",
        "constructionName": "R13 Construction",
        "constructionSetHandle": "3d1a945a-cdfd-4bc2-a24d-2580ab08b872",
        "constructionSetMaterialName": "",
        "constructionSetName": "",
        "handle": "d75228f4-3455-4816-ac10-4962b2f78dd5",
        "illuminanceSetpoint": 0.0,
        "name": "2-WEST",
        "outsideBoundaryCondition": "Outdoors",
        "outsideBoundaryConditionObjectHandle": "",
        "outsideBoundaryConditionObjectName": "",
        "shadingHandle": "",
        "shadingName": "",
        "spaceHandle": "ddf205ef-02cf-45a3-af90-9c17b3acfec8",
        "spaceName": "Space1",
        "spaceTypeHandle": "",
        "spaceTypeMaterialName": "",
        "spaceTypeName": "",
        "subSurfaceHandle": "",
        "subSurfaceName": "",
        "sunExposure": "SunExposed",
        "surfaceHandle": "d75228f4-3455-4816-ac10-4962b2f78dd5",
        "surfaceName": "2-WEST",
        "surfaceType": "Wall",
        "surfaceTypeMaterialName": "Wall",
        "thermalZoneHandle": "4e37533f-92ea-4fac-9a79-bcb83702798e",
        "thermalZoneMaterialName": "ThermalZone_Zone1",
        "thermalZoneName": "Zone1",
        "windExposure": "WindExposed"
      },
      "mesh": 1,
      "name": "2-WEST"
    },
    {
      "extras": {
        "airLoopHVACHandles": null,
        "airLoopHVACMaterialNames": null,
        "airLoopHVACNames": null,
        "airWall": false,
        "boundaryMaterialName": "Boundary_Outdoors_SunWind",
        "buildingStoryHandle": "",
        "buildingStoryMaterialName": "",
        "buildingStoryName": "",
        "buildingUnitHandle": "",
        "buildingUnitMaterialName": "",
        "buildingUnitName": "",
        "coincidentWithOutsideObject": false,
        "constructionHandle": "",
        "constructionMaterialName": "Construction_R13 Construction",
        "constructionName": "R13 Construction",
        "constructionSetHandle": "3d1a945a-cdfd-4bc2-a24d-2580ab08b872",
        "constructionSetMaterialName": "",
        "constructionSetName": "",
        "handle": "78c32a71-d9b6-467d-b6ae-bec375b882a9",
        "illuminanceSetpoint": 0.0,
        "name": "3-EAST",
        "outsideBoundaryCondition": "Outdoors",
        "outsideBoundaryConditionObjectHandle": "",
        "outsideBoundaryConditionObjectName": "",
        "shadingHandle": "",
        "shadingName": "",
        "spaceHandle": "ddf205ef-02cf-45a3-af90-9c17b3acfec8",
        "spaceName": "Space1",
        "spaceTypeHandle": "",
        "spaceTypeMaterialName": "",
        "spaceTypeName": "",
        "subSurfaceHandle": "",
        "subSurfaceName": "",
        "sunExposure": "SunExposed",
        "surfaceHandle": "78c32a71-d9b6-467d-b6ae-bec375b882a9",
        "surfaceName": "3-EAST",
        "surfaceType": "Wall",
        "surfaceTypeMaterialName": "Wall",
        "thermalZoneHandle": "4e37533f-92ea-4fac-9a79-bcb83702798e",
        "thermalZoneMaterialName": "ThermalZone_Zone1",
        "thermalZoneName": "Zone1",
        "windExposure": "WindExposed"
      },
      "mesh": 2,
      "name": "3-EAST"
    },
    {
      "extras": {
        "airLoopHVACHandles": null,
        "airLoopHVACMaterialNames": null,
        "airLoopHVACNames": null,
        "airWall": false,
        "boundaryMaterialName": "Boundary_Outdoors_SunWind",
        "buildingStoryHandle": "",
        "buildingStoryMaterialName": "",
        "buildingStoryName": "",
        "buildingUnitHandle": "",
        "buildingUnitMaterialName": "",
        "buildingUnitName": "",
        "coincidentWithOutsideObject": false,
        "constructionHandle": "",
        "constructionMaterialName": "Construction_R13 Construction",
        "constructionName": "R13 Construction",
        "constructionSetHandle": "3d1a945a-cdfd-4bc2-a24d-2580ab08b872",
        "constructionSetMaterialName": "",
        "constructionSetName": "",
        "handle": "77506998-7d60-451d-8649-1ba94a43a5ee",
        "illuminanceSetpoint": 0.0,
        "name": "4-NORTH",
        "outsideBoundaryCondition": "Outdoors",
        "outsideBoundaryConditionObjectHandle": "",
        "outsideBoundaryConditionObjectName": "",
        "shadingHandle": "",
        "shadingName": "",
        "spaceHandle": "ddf205ef-02cf-45a3-af90-9c17b3acfec8",
        "spaceName": "Space1",
        "spaceTypeHandle": "",
        "spaceTypeMaterialName": "",
        "spaceTypeName": "",
        "subSurfaceHandle": "",
        "subSurfaceName": "",
        "sunExposure": "SunExposed",
        "surfaceHandle": "77506998-7d60-451d-8649-1ba94a43a5ee",
        "surfaceName": "4-NORTH",
        "surfaceType": "Wall",
        "surfaceTypeMaterialName": "Wall",
        "thermalZoneHandle": "4e37533f-92ea-4fac-9a79-bcb83702798e",
        "thermalZoneMaterialName": "ThermalZone_Zone1",
        "thermalZoneName": "Zone1",
        "windExposure": "WindExposed"
      },
      "mesh": 3,
      "name": "4-NORTH"
    },
    {
      "extras": {
        "airLoopHVACHandles": null,
        "airLoopHVACMaterialNames": null,
        "airLoopHVACNames": null,
        "airWall": false,
        "boundaryMaterialName": "Boundary_Ground",
        "buildingStoryHandle": "",
        "buildingStoryMaterialName": "",
        "buildingStoryName": "",
        "buildingUnitHandle": "",
        "buildingUnitMaterialName": "",
        "buildingUnitName": "",
        "coincidentWithOutsideObject": false,
        "constructionHandle": "",
        "constructionMaterialName": "Construction_R13 Construction",
        "constructionName": "R13 Construction",
        "constructionSetHandle": "3d1a945a-cdfd-4bc2-a24d-2580ab08b872",
        "constructionSetMaterialName": "",
        "constructionSetName": "",
        "handle": "32eebd35-1a8c-4558-affd-03077c153e38",
        "illuminanceSetpoint": 0.0,
        "name": "FLOOR",
        "outsideBoundaryCondition": "Ground",
        "outsideBoundaryConditionObjectHandle": "",
        "outsideBoundaryConditionObjectName": "",
        "shadingHandle": "",
        "shadingName": "",
        "spaceHandle": "ddf205ef-02cf-45a3-af90-9c17b3acfec8",
        "spaceName": "Space1",
        "spaceTypeHandle": "",
        "spaceTypeMaterialName": "",
        "spaceTypeName": "",
        "subSurfaceHandle": "",
        "subSurfaceName": "",
        "sunExposure": "NoSun",
        "surfaceHandle": "32eebd35-1a8c-4558-affd-03077c153e38",
        "surfaceName": "FLOOR",
        "surfaceType": "Floor",
        "surfaceTypeMaterialName": "Floor",
        "thermalZoneHandle": "4e37533f-92ea-4fac-9a79-bcb83702798e",
        "thermalZoneMaterialName": "ThermalZone_Zone1",
        "thermalZoneName": "Zone1",
        "windExposure": "NoWind"
      },
      "mesh": 4,
      "name": "FLOOR"
    },
    {
      "extras": {
        "airLoopHVACHandles": null,
        "airLoopHVACMaterialNames": null,
        "airLoopHVACNames": null,
        "airWall": false,
        "boundaryMaterialName": "Boundary_Outdoors_SunWind",
        "buildingStoryHandle": "",
        "buildingStoryMaterialName": "",
        "buildingStoryName": "",
        "buildingUnitHandle": "",
        "buildingUnitMaterialName": "",
        "buildingUnitName": "",
        "coincidentWithOutsideObject": false,
        "constructionHandle": "",
        "constructionMaterialName": "Construction_R13 Construction",
        "constructionName": "R13 Construction",
        "constructionSetHandle": "3d1a945a-cdfd-4bc2-a24d-2580ab08b872",
        "constructionSetMaterialName": "",
        "constructionSetName": "",
        "handle": "6d69e079-522b-4c23-a45a-3c8f1329e6b9",
        "illuminanceSetpoint": 0.0,
        "name": "ROOF",
        "outsideBoundaryCondition": "Outdoors",
        "outsideBoundaryConditionObjectHandle": "",
        "outsideBoundaryConditionObjectName": "",
        "shadingHandle": "",
        "shadingName": "",
        "spaceHandle": "ddf205ef-02cf-45a3-af90-9c17b3acfec8",
        "spaceName": "Space1",
        "spaceTypeHandle": "",
        "spaceTypeMaterialName": "",
        "spaceTypeName": "",
        "subSurfaceHandle": "",
        "subSurfaceName": "",
        "sunExposure": "SunExposed",
        "surfaceHandle": "6d69e079-522b-4c23-a45a-3c8f1329e6b9",
        "surfaceName": "ROOF",
        "surfaceType": "RoofCeiling",
        "surfaceTypeMaterialName": "RoofCeiling",
        "thermalZoneHandle": "4e37533f-92ea-4fac-9a79-bcb83702798e",
        "thermalZoneMaterialName": "ThermalZone_Zone1",
        "thermalZoneName": "Zone1",
        "windExposure": "WindExposed"
      },
      "mesh": 5,
      "name": "ROOF"
    }
  ],
  "scenes": [
    {
      "extras": {
        "boundingbox": {
          "lookAtR": 15.88238017426859,
          "lookAtX": 0.0,
          "lookAtY": 0.0,
          "lookAtZ": 0.0,
          "maxX": 30.0,
          "maxY": 10.0,
          "maxZ": 3.0,
          "minX": 0.0,
          "minY": 0.0,
          "minZ": 0.0
        },
        "buildingStoryNames": null,
        "generator": "OpenStudio",
        "modelObjectMetaData": {
          "0": {
            "color": "#FF507F",
            "handle": "4e37533f-92ea-4fac-9a79-bcb83702798e",
            "iddObjectType": "OS:ThermalZone",
            "multiplier": 1,
            "name": "Zone1",
            "nominal_floorCeiling_Height": 0.0,
            "nominal_z_coordinate": 0.0,
            "open_to_below": false
          }
        },
        "northAxis": -0.0,
        "type": "Object",
        "version": "3.5.1"
      },
      "nodes": [
        0
      ]
    }
  ]
}
